<svg xmlns="http://www.w3.org/2000/svg" width="51.156" height="33.037" viewBox="0 0 51.156 33.037">
  <path id="Tracciato_2808" data-name="Tracciato 2808" d="M187.944,407.1l-3.887-6.406a5.288,5.288,0,0,0-4.534-2.591,4.787,4.787,0,0,0-2.447.648,4.973,4.973,0,0,0-1.727,6.91l.216.432.864-.5c1.08-.648,2.015-.144,2.015,1.152v7.989c0,1.3-.936,1.8-2.015,1.152l-6.91-3.959a1.224,1.224,0,0,1,0-2.3l1.008-.576-5.038-8.349a5.26,5.26,0,0,0-4.462-2.591,3.3,3.3,0,0,0-2.519.648,4.9,4.9,0,0,0-2.3,3.023,4.393,4.393,0,0,0-.072,2.159l-.36-.216a3.249,3.249,0,0,0-1.8-.5,2.984,2.984,0,0,0-2.879,3.239v1.008l-4.1-6.766a5.223,5.223,0,0,0-4.534-2.519c-1.871,0-1.727.216-2.519.648a4.973,4.973,0,0,0-1.727,6.91l13.747,22.816a5.45,5.45,0,0,0,4.534,2.591,5.252,5.252,0,0,0,2.519-.648,4.973,4.973,0,0,0,1.727-6.91l-5.11-8.421-.864.5c-1.08.648-2.015.144-2.015-1.152v-7.989c0-1.3.936-1.8,2.015-1.152l6.91,3.959a1.224,1.224,0,0,1,0,2.3l-1.008.576,9.861,16.338a5.3,5.3,0,0,0,7.054,1.871,4.9,4.9,0,0,0,2.3-3.023,5.146,5.146,0,0,0-.576-3.959l-3.6-5.9a3.082,3.082,0,0,0,1.583.432h0a3.083,3.083,0,0,0,2.951-3.239v-1.368a5.461,5.461,0,0,0,3.455,1.368,4.786,4.786,0,0,0,2.447-.648,4.9,4.9,0,0,0,2.3-3.023,5.146,5.146,0,0,0-.576-3.959Z" transform="translate(-137.462 -398.1)" fill="#0047fa"/>
</svg>
